<?xml version="1.0" standalone="no"?>
<!DOCTYPE svg PUBLIC "-//W3C//DTD SVG 20010904//EN"
 "http://www.w3.org/TR/2001/REC-SVG-20010904/DTD/svg10.dtd">
<svg version="1.0" xmlns="http://www.w3.org/2000/svg"
 width="512.000000pt" height="512.000000pt" viewBox="0 0 512.000000 512.000000"
 preserveAspectRatio="xMidYMid meet">

<g transform="translate(0.000000,512.000000) scale(0.100000,-0.100000)"
fill="#CEB15A" stroke="none">
<path d="M4491 4972 c-46 -23 -73 -62 -80 -114 l-6 -43 -198 -5 c-182 -5 -200
-7 -213 -24 -16 -23 -18 -59 -4 -86 17 -32 67 -40 246 -40 l174 0 0 -32 c0
-42 31 -93 72 -118 29 -17 51 -20 173 -20 155 0 190 10 229 63 19 26 21 42 21
185 0 150 -1 159 -24 191 -37 51 -72 61 -223 61 -107 0 -140 -3 -167 -18z
m269 -232 l0 -100 -100 0 -100 0 0 100 0 100 100 0 100 0 0 -100z"/>
<path d="M3620 4790 c-11 -11 -20 -33 -20 -50 0 -60 58 -87 167 -78 46 4 61
10 80 32 28 33 29 56 2 90 -19 25 -25 26 -115 26 -81 0 -97 -3 -114 -20z"/>
<path d="M2264 4572 c-12 -2 -30 -12 -40 -24 -17 -18 -19 -41 -19 -275 l0
-255 28 -24 c15 -13 36 -24 46 -24 36 0 175 -42 261 -79 231 -100 434 -291
550 -521 76 -150 109 -282 117 -460 3 -74 1 -149 -3 -167 l-9 -32 -391 255
-391 256 25 60 c20 52 23 74 20 147 -2 71 -8 97 -34 151 -39 83 -101 145 -184
184 -59 28 -74 31 -160 31 -86 0 -101 -3 -162 -32 -196 -92 -274 -312 -183
-511 14 -31 39 -71 55 -87 l29 -30 -345 -405 c-189 -223 -348 -406 -353 -408
-12 -4 -78 145 -106 243 -14 50 -31 137 -36 195 -6 58 -17 115 -25 126 -18 30
-58 38 -94 19 -37 -19 -44 -47 -36 -138 16 -172 63 -335 143 -490 41 -78 44
-90 31 -105 -125 -147 -182 -212 -185 -212 -10 0 -100 152 -139 234 -270 570
-174 1239 244 1713 165 186 374 332 615 427 59 23 121 41 240 70 l27 6 0 -153
0 -153 -79 -23 c-103 -30 -277 -115 -371 -182 -208 -147 -381 -383 -466 -636
-35 -103 -36 -149 -5 -174 57 -46 109 -9 141 101 109 375 427 676 810 765 126
30 120 15 120 315 0 327 4 321 -181 285 -453 -86 -850 -352 -1118 -748 -97
-143 -207 -410 -245 -597 -91 -447 2 -917 257 -1298 l48 -73 -25 -32 c-14 -18
-40 -49 -58 -70 l-33 -38 -54 25 c-139 64 -314 32 -424 -79 -251 -251 -62
-673 293 -653 204 12 359 178 360 384 0 57 -22 138 -50 187 l-19 32 54 60 54
60 68 -66 c285 -275 629 -442 1006 -489 223 -28 523 1 740 71 187 60 511 243
539 304 6 13 8 34 5 47 -4 13 -87 103 -185 200 -135 135 -184 178 -203 178
-14 0 -47 -14 -75 -32 -173 -111 -359 -168 -569 -175 -277 -10 -505 60 -719
221 -89 68 -209 193 -202 211 3 8 168 205 368 440 l363 425 45 -7 c109 -19
222 0 292 49 l27 19 426 -278 c233 -153 425 -284 425 -291 0 -30 -65 -177
-115 -261 -31 -50 -55 -102 -55 -118 0 -21 35 -62 176 -204 101 -102 188 -180
202 -184 17 -4 34 0 51 13 44 31 138 170 203 299 l62 121 37 -21 37 -22 -5
-67 c-13 -149 87 -270 233 -285 207 -22 353 192 260 381 -26 53 -27 61 -15 86
8 15 135 255 284 532 l269 505 66 -1 c229 -3 352 259 204 433 -47 55 -104 82
-181 89 -144 11 -265 -90 -280 -234 -7 -62 10 -130 42 -174 l22 -30 -283 -532
-283 -532 -73 -1 c-55 0 -84 -6 -119 -22 -25 -13 -48 -23 -51 -23 -4 0 -30 14
-58 32 -45 28 -51 35 -46 58 49 220 57 276 63 425 17 482 -153 924 -485 1262
-111 112 -177 163 -213 163 -39 0 -69 -32 -69 -72 0 -29 14 -46 115 -141 250
-235 403 -509 477 -850 18 -86 22 -133 22 -302 0 -221 -15 -321 -76 -500 -47
-142 -180 -395 -206 -395 -4 0 -54 47 -111 104 l-103 104 40 68 c155 263 202
620 122 936 -105 419 -439 771 -845 893 -49 15 -96 29 -102 31 -10 2 -13 42
-13 154 0 113 3 150 13 150 58 0 273 -69 390 -126 84 -40 116 -42 145 -11 24
26 28 57 11 89 -19 35 -242 130 -404 172 -79 20 -224 42 -251 38z m2647 -898
c37 -19 63 -75 55 -119 -16 -83 -125 -119 -186 -60 -97 93 11 241 131 179z
m-2758 -35 c49 -13 115 -73 138 -124 26 -56 25 -149 -2 -200 -60 -117 -203
-165 -317 -106 -172 89 -164 341 13 422 45 21 111 24 168 8z m1937 -1484 c47
-45 48 -114 3 -160 -51 -50 -137 -41 -174 19 -25 40 -24 81 1 122 37 59 119
68 170 19z m-2705 -343 c152 -100 316 -166 491 -196 114 -20 316 -20 430 -1
119 21 281 76 380 130 l81 43 107 -107 108 -108 -59 -37 c-143 -91 -336 -169
-515 -207 -137 -30 -399 -37 -543 -14 -351 54 -685 226 -902 465 l-52 57 95
112 96 112 102 -98 c55 -55 137 -123 181 -151z m-899 -228 c116 -55 165 -192
110 -309 -42 -91 -130 -141 -230 -133 -145 12 -244 155 -205 295 17 62 97 145
154 161 51 14 125 8 171 -14z"/>
<path d="M4435 4346 c-37 -16 -70 -52 -84 -88 l-11 -28 -130 0 c-117 0 -132
-2 -150 -20 -27 -27 -26 -81 1 -106 18 -16 40 -19 153 -22 l131 -4 18 -38 c29
-63 68 -80 177 -80 164 0 200 36 200 197 0 87 -3 104 -23 134 -34 52 -78 69
-172 69 -44 -1 -93 -7 -110 -14z m155 -186 l0 -50 -50 0 -50 0 0 50 0 50 50 0
50 0 0 -50z"/>
<path d="M3787 4213 c-51 -57 -16 -122 70 -130 65 -7 117 10 132 43 16 35 14
47 -10 78 -19 24 -26 26 -98 26 -62 0 -81 -4 -94 -17z"/>
<path d="M810 962 c-71 -31 -90 -72 -90 -193 0 -83 3 -101 23 -130 34 -51 78
-69 170 -69 111 0 169 30 196 103 l11 27 125 0 c70 0 135 4 145 10 27 14 41
62 26 91 -20 40 -52 49 -181 49 l-121 0 -13 35 c-7 21 -28 46 -49 60 -33 22
-46 25 -132 24 -52 0 -102 -3 -110 -7z m160 -192 l0 -50 -50 0 -50 0 0 50 0
50 50 0 50 0 0 -50z"/>
<path d="M1579 839 c-25 -9 -49 -45 -49 -73 0 -7 9 -25 21 -40 20 -25 23 -26
135 -26 130 0 154 11 154 73 0 58 -26 72 -139 74 -53 1 -108 -2 -122 -8z"/>
<path d="M290 512 c-27 -12 -55 -36 -73 -62 -13 -19 -17 -47 -17 -131 0 -102
1 -109 27 -140 38 -45 80 -59 173 -59 107 0 162 30 189 102 l11 28 130 0 c117
0 132 2 150 20 27 27 26 81 -1 106 -18 16 -40 20 -153 23 l-131 3 -18 39 c-28
59 -75 79 -184 78 -48 0 -95 -3 -103 -7z m160 -192 l0 -50 -50 0 -50 0 0 50 0
50 50 0 50 0 0 -50z"/>
<path d="M1039 389 c-25 -9 -49 -45 -49 -73 0 -7 9 -25 21 -40 l20 -26 295 0
c281 0 295 1 314 20 38 38 22 100 -31 119 -40 14 -533 14 -570 0z"/>
</g>
</svg>
