<?xml version="1.0" standalone="no"?>
<!DOCTYPE svg PUBLIC "-//W3C//DTD SVG 20010904//EN"
 "http://www.w3.org/TR/2001/REC-SVG-20010904/DTD/svg10.dtd">
<svg version="1.0" xmlns="http://www.w3.org/2000/svg"
 width="512.000000pt" height="512.000000pt" viewBox="0 0 512.000000 512.000000"
 preserveAspectRatio="xMidYMid meet">

<g transform="translate(0.000000,512.000000) scale(0.100000,-0.100000)"
fill="#CEB15A" stroke="none">
<path d="M965 5110 c-573 -89 -993 -600 -962 -1170 23 -425 264 -783 652 -966
250 -119 560 -137 824 -48 398 134 684 468 757 885 23 133 15 329 -20 462
-107 412 -441 732 -861 824 -85 18 -307 25 -390 13z m85 -653 l0 -492 246
-418 c136 -232 242 -423 238 -427 -15 -15 -186 -68 -254 -79 -493 -80 -970
237 -1092 725 -31 126 -31 332 0 458 80 320 321 581 632 685 69 23 210 51 223
44 4 -2 7 -226 7 -496z m330 469 c85 -22 252 -104 321 -157 200 -155 321 -346
370 -584 10 -49 19 -96 19 -102 0 -10 -95 -13 -440 -13 l-440 0 0 443 0 444
53 -8 c28 -4 81 -14 117 -23z m703 -1063 c-8 -66 -47 -199 -78 -269 -43 -98
-130 -217 -221 -303 -47 -45 -91 -80 -97 -78 -9 3 -338 551 -403 670 l-15 27
411 0 410 0 -7 -47z"/>
<path d="M2646 5099 l-26 -20 0 -259 0 -259 26 -20 c25 -20 39 -21 269 -21
230 0 244 1 269 21 l26 20 0 259 0 259 -26 20 c-25 20 -39 21 -269 21 -230 0
-244 -1 -269 -21z m404 -279 l0 -140 -135 0 -135 0 0 140 0 140 135 0 135 0 0
-140z"/>
<path d="M3438 5040 c-25 -26 -29 -36 -24 -63 3 -18 16 -40 27 -49 20 -17 74
-18 826 -18 l804 0 24 25 c39 38 27 102 -22 124 -17 8 -256 11 -814 11 l-791
0 -30 -30z"/>
<path d="M3441 4713 c-11 -10 -24 -32 -27 -50 -5 -27 -1 -37 24 -63 l30 -30
404 0 c433 0 441 1 465 52 16 31 1 83 -27 98 -11 6 -182 10 -433 10 -380 0
-417 -1 -436 -17z"/>
<path d="M2640 4270 c-19 -19 -20 -33 -20 -271 0 -144 4 -258 10 -269 18 -33
66 -40 285 -40 219 0 267 7 285 40 6 11 10 125 10 269 0 238 -1 252 -20 271
-19 19 -33 20 -275 20 -242 0 -256 -1 -275 -20z m410 -280 l0 -140 -135 0
-135 0 0 140 0 140 135 0 135 0 0 -140z"/>
<path d="M3452 4233 c-15 -6 -42 -56 -42 -78 0 -9 13 -30 29 -46 l29 -29 792
0 c582 0 797 3 813 12 52 27 62 83 22 123 l-24 25 -803 -1 c-442 0 -809 -3
-816 -6z"/>
<path d="M3463 3900 c-34 -14 -56 -54 -48 -90 13 -61 8 -60 463 -60 250 0 421
4 432 10 48 26 43 110 -10 137 -30 15 -800 18 -837 3z"/>
<path d="M2670 3463 c-48 -18 -50 -26 -50 -213 l0 -177 -64 -38 c-223 -130
-418 -391 -492 -655 -47 -171 -45 -431 5 -598 l19 -60 -75 -4 c-67 -3 -78 -6
-99 -31 l-24 -28 0 -805 0 -805 25 -24 24 -25 296 0 296 0 24 25 25 24 0 536
c0 318 4 535 9 535 5 0 33 -12 61 -26 29 -15 87 -39 129 -54 l76 -28 3 -485 2
-486 26 -20 c26 -20 39 -21 310 -21 300 0 323 3 343 47 8 16 11 177 11 518 l0
494 63 30 c34 16 91 48 126 71 l63 41 103 -101 103 -102 -1 -61 c-1 -40 5 -73
15 -92 24 -45 614 -614 654 -631 92 -38 148 -10 299 150 125 132 144 159 145
213 1 73 -23 102 -305 377 -151 147 -293 282 -315 301 -52 44 -107 59 -158 46
l-37 -11 -111 111 -111 110 38 72 c81 154 120 319 120 506 0 298 -98 545 -307
770 l-56 61 205 0 c201 0 206 1 233 23 37 33 37 81 0 114 l-27 23 -322 0 -323
0 -87 35 c-77 32 -205 65 -309 80 l-38 6 0 113 c0 160 18 151 -284 153 -132 1
-248 -1 -256 -4z m380 -208 c0 -61 9 -55 -111 -75 -36 -5 -87 -16 -113 -24
l-46 -14 0 84 0 84 135 0 135 0 0 -55z m241 -230 c201 -35 355 -113 503 -254
188 -181 287 -414 287 -681 0 -269 -99 -500 -293 -686 -165 -159 -372 -247
-608 -260 -414 -24 -805 241 -942 636 -65 189 -65 431 0 620 152 436 603 704
1053 625z m-1080 -1547 c30 -45 89 -118 132 -162 l77 -79 0 -539 0 -538 -185
0 -185 0 0 700 0 700 54 0 53 0 54 -82z m1974 -288 c2 -4 -11 -22 -30 -40
l-35 -34 -37 34 c-21 19 -66 61 -100 94 l-62 59 32 38 31 37 98 -90 c54 -50
100 -94 103 -98z m735 -564 l45 -46 -112 -112 -113 -112 -122 119 c-68 66
-198 193 -291 284 l-167 165 92 95 c50 53 100 104 111 114 19 17 27 10 266
-222 135 -132 266 -260 291 -285z m-1530 -41 l0 -425 -185 0 -185 0 0 413 0
412 138 1 c75 1 155 6 177 12 22 5 43 10 48 11 4 1 7 -190 7 -424z"/>
<path d="M2995 2909 c-186 -37 -337 -120 -467 -257 -82 -87 -138 -182 -180
-303 -28 -83 -32 -110 -36 -230 -4 -115 -1 -149 17 -220 66 -261 252 -479 489
-575 116 -46 180 -58 317 -58 171 0 290 32 433 115 83 49 231 200 280 285 120
207 147 462 72 685 -45 135 -99 220 -204 324 -121 119 -220 176 -382 220 -71
20 -269 28 -339 14z m280 -164 c138 -29 293 -125 380 -233 55 -70 108 -176
130 -260 40 -157 2 -402 -77 -506 -14 -18 -17 -15 -49 45 -42 79 -136 176
-211 219 -32 17 -58 33 -58 35 0 2 15 26 34 54 66 97 72 224 16 337 -36 73
-91 127 -169 162 -45 21 -71 26 -137 26 -72 0 -89 -4 -147 -32 -187 -92 -253
-327 -140 -494 32 -48 33 -54 18 -63 -125 -73 -210 -157 -261 -258 -25 -49
-27 -50 -41 -31 -25 32 -63 123 -78 188 -19 80 -19 234 1 316 32 138 125 281
237 366 164 124 359 170 552 129z m-92 -286 c83 -23 145 -116 134 -200 -22
-164 -242 -217 -333 -80 -67 101 -22 236 92 276 48 17 59 18 107 4z m92 -545
c110 -37 212 -127 259 -228 42 -92 42 -101 -6 -137 -104 -77 -264 -129 -393
-129 -129 0 -289 52 -393 129 -48 36 -48 45 -6 137 58 125 186 219 334 248 43
8 153 -3 205 -20z"/>
<path d="M3474 3413 c-54 -11 -77 -91 -39 -133 18 -20 24 -20 831 -20 l813 0
20 26 c28 35 26 67 -3 101 l-24 28 -789 1 c-433 1 -798 0 -809 -3z"/>
<path d="M951 2431 c-11 -11 -23 -35 -26 -53 -3 -18 -4 -550 -3 -1181 l3
-1149 28 -24 28 -24 289 0 289 0 28 24 28 24 3 1159 c1 637 0 1168 -3 1181 -3
12 -14 31 -25 42 -19 19 -35 20 -320 20 -284 0 -301 -1 -319 -19z m509 -1206
l0 -1065 -190 0 -190 0 0 1065 0 1065 190 0 190 0 0 -1065z"/>
<path d="M54 1980 c-57 -23 -54 28 -54 -993 l0 -938 25 -24 24 -25 296 0 296
0 24 25 25 24 0 940 c0 517 -3 947 -6 956 -16 40 -50 45 -336 44 -150 0 -283
-4 -294 -9z m476 -985 l0 -835 -185 0 -185 0 0 835 0 835 185 0 185 0 0 -835z"/>
</g>
</svg>
