<?xml version="1.0" standalone="no"?>
<!DOCTYPE svg PUBLIC "-//W3C//DTD SVG 20010904//EN"
 "http://www.w3.org/TR/2001/REC-SVG-20010904/DTD/svg10.dtd">
<svg version="1.0" xmlns="http://www.w3.org/2000/svg"
 width="512.000000pt" height="512.000000pt" viewBox="0 0 512.000000 512.000000"
 preserveAspectRatio="xMidYMid meet">

<g transform="translate(0.000000,512.000000) scale(0.100000,-0.100000)"
fill="#CEB15A" stroke="none">
<path d="M935 4870 c-151 -31 -280 -120 -365 -252 -38 -57 -80 -164 -80 -200
0 -17 38 -18 870 -18 737 0 870 2 870 14 0 36 -44 149 -80 204 -72 112 -157
180 -289 231 l-66 26 -410 2 c-225 1 -428 -2 -450 -7z"/>
<path d="M3465 4855 l-25 -24 0 -671 0 -671 25 -24 24 -25 671 0 671 0 24 25
25 24 0 671 0 671 -25 24 c-23 24 -29 25 -160 25 l-135 0 0 -240 0 -240 -400
0 -400 0 0 240 0 240 -135 0 c-131 0 -137 -1 -160 -25z"/>
<path d="M3920 4720 l0 -160 240 0 240 0 0 160 0 160 -240 0 -240 0 0 -160z"/>
<path d="M320 4160 l0 -80 1040 0 1040 0 0 80 0 80 -1040 0 -1040 0 0 -80z"/>
<path d="M2560 4160 l0 -80 360 0 360 0 0 80 0 80 -360 0 -360 0 0 -80z"/>
<path d="M480 3685 c0 -273 11 -346 69 -470 69 -147 178 -264 310 -333 103
-55 101 -56 101 37 l0 80 -97 74 c-176 133 -216 195 -217 337 -1 72 3 94 25
141 49 103 132 172 242 199 l47 12 0 79 0 79 -240 0 -240 0 0 -235z"/>
<path d="M1120 3761 l0 -159 -98 -4 c-84 -3 -104 -6 -134 -27 -82 -56 -109
-151 -68 -236 18 -38 47 -65 161 -151 l139 -105 0 -326 0 -326 77 -103 c43
-57 80 -104 83 -104 3 0 40 47 83 104 l77 103 0 187 0 186 216 0 c257 0 279 5
349 75 67 67 75 97 75 294 l0 161 59 29 c67 34 101 71 101 110 0 16 -31 73
-80 146 l-80 120 0 93 0 92 -480 0 -480 0 0 -159z"/>
<path d="M4080 3031 l0 -249 -30 -12 c-68 -28 -130 -129 -130 -210 0 -81 62
-182 130 -210 l30 -12 0 -249 0 -249 80 0 80 0 0 249 0 249 30 12 c68 28 130
129 130 210 0 81 -62 182 -130 210 l-30 12 0 249 0 249 -80 0 -80 0 0 -249z"/>
<path d="M993 2302 c-10 -6 -8 -47 8 -182 10 -95 21 -175 22 -177 2 -1 36 31
77 72 l73 74 -82 110 c-46 61 -84 111 -85 111 0 0 -6 -4 -13 -8z"/>
<path d="M1469 2199 l-82 -110 73 -74 c41 -41 75 -73 77 -72 2 3 43 345 43
362 0 3 -6 5 -14 5 -8 0 -51 -50 -97 -111z"/>
<path d="M1736 2251 c-3 -20 -19 -162 -36 -316 -17 -154 -33 -295 -36 -314
l-6 -34 -189 189 -189 189 -189 -189 -189 -189 -6 34 c-3 19 -20 160 -36 314
-17 154 -32 283 -33 288 -5 18 -170 -105 -257 -192 -104 -104 -159 -182 -220
-306 -101 -208 -137 -488 -84 -665 53 -181 188 -341 354 -424 135 -66 199 -76
496 -76 l244 0 0 160 0 160 -183 0 c-260 0 -357 30 -472 145 -109 109 -145
216 -145 432 l0 143 79 0 79 0 4 -157 c3 -149 5 -161 31 -214 32 -66 99 -132
165 -162 43 -20 67 -22 265 -25 l218 -4 53 50 c59 56 111 85 180 103 l46 11 0
136 c0 76 5 152 12 176 16 55 99 138 154 154 29 8 140 12 363 12 l322 0 -27
48 c-163 285 -419 479 -731 552 -31 7 -32 6 -37 -29z"/>
<path d="M4034 1670 c-143 -26 -266 -92 -380 -205 -90 -89 -142 -173 -182
-293 -22 -67 -26 -94 -25 -212 0 -119 3 -144 26 -215 38 -115 91 -199 182
-290 91 -91 175 -144 290 -182 71 -23 96 -26 215 -26 119 0 144 3 215 26 115
38 199 91 290 182 91 91 144 175 182 290 23 71 26 96 26 215 0 119 -3 144 -26
215 -38 115 -91 199 -182 290 -139 140 -284 203 -475 210 -58 2 -128 0 -156
-5z m206 -235 l0 -85 38 -19 c79 -41 121 -118 122 -223 l0 -68 -80 0 -80 0 0
57 c0 71 -25 103 -79 103 -39 0 -81 -32 -81 -62 0 -39 23 -59 130 -114 116
-59 150 -90 176 -161 19 -54 17 -111 -7 -163 -25 -56 -53 -86 -101 -111 l-38
-19 0 -85 0 -85 -80 0 -80 0 0 85 0 85 -37 19 c-80 41 -122 118 -123 224 l0
67 80 0 80 0 0 -57 c0 -71 25 -103 79 -103 39 0 81 32 81 62 0 39 -23 59 -130
114 -116 59 -150 90 -176 161 -19 54 -17 111 7 163 25 56 53 86 102 111 l37
19 0 85 0 85 80 0 80 0 0 -85z"/>
<path d="M1865 1495 c-24 -23 -25 -29 -25 -158 l0 -135 48 -7 c59 -8 155 -59
188 -98 14 -16 37 -53 52 -81 26 -49 27 -56 27 -216 l0 -165 -34 -63 c-19 -35
-48 -74 -64 -88 -45 -38 -117 -71 -170 -79 l-47 -7 0 -55 c0 -44 5 -58 25 -78
l24 -25 511 0 511 0 24 25 25 24 0 591 0 591 -25 24 -24 25 -511 0 -511 0 -24
-25z m775 -215 l0 -80 -240 0 -240 0 0 80 0 80 240 0 240 0 0 -80z"/>
<path d="M1640 1029 c-14 -5 -46 -31 -72 -57 l-48 -46 0 -184 0 -183 189 3
c207 3 216 6 265 72 19 25 21 42 21 166 0 124 -2 141 -21 166 -45 61 -66 69
-192 71 -64 2 -128 -2 -142 -8z"/>
<path d="M3120 960 l0 -80 80 0 80 0 0 80 0 80 -80 0 -80 0 0 -80z"/>
</g>
</svg>
