<?xml version="1.0" standalone="no"?>
<!DOCTYPE svg PUBLIC "-//W3C//DTD SVG 20010904//EN"
 "http://www.w3.org/TR/2001/REC-SVG-20010904/DTD/svg10.dtd">
<svg version="1.0" xmlns="http://www.w3.org/2000/svg"
 width="512.000000pt" height="512.000000pt" viewBox="0 0 512.000000 512.000000"
 preserveAspectRatio="xMidYMid meet">

<g transform="translate(0.000000,512.000000) scale(0.100000,-0.100000)"
fill="#CEB15A" stroke="none">
<path d="M2495 5098 c-2 -7 -9 -31 -14 -53 -15 -57 -28 -70 -98 -99 -70 -29
-100 -32 -128 -13 -78 53 -69 53 -120 6 -68 -63 -70 -70 -35 -125 36 -58 36
-63 6 -139 -32 -78 -57 -102 -112 -111 -51 -7 -64 -27 -64 -92 0 -67 9 -81 54
-92 73 -18 87 -31 118 -105 15 -38 28 -77 28 -86 0 -8 -14 -36 -30 -63 -34
-53 -32 -62 22 -112 62 -56 60 -56 109 -24 54 37 71 37 155 3 70 -29 81 -41
99 -113 l11 -45 80 -3 80 -3 19 63 c20 62 21 63 85 95 81 40 102 40 165 3 l50
-29 57 56 56 56 -29 47 c-35 57 -36 80 -7 151 33 82 45 92 141 113 27 6 27 7
27 86 l0 79 -42 11 c-78 20 -88 27 -118 96 -37 82 -37 105 -1 164 l29 47 -56
56 -57 56 -50 -29 c-63 -37 -84 -37 -165 3 -64 32 -65 33 -85 95 l-19 62 -78
0 c-54 0 -80 -4 -83 -12z m210 -412 c122 -72 159 -234 80 -354 -91 -137 -289
-149 -396 -23 -107 124 -65 316 85 388 69 33 163 28 231 -11z"/>
<path d="M585 3766 c-257 -59 -450 -235 -535 -486 -28 -83 -37 -239 -20 -339
14 -86 70 -203 131 -276 64 -77 99 -136 99 -169 0 -53 19 -101 50 -131 27 -26
30 -35 30 -93 0 -86 30 -141 96 -172 25 -13 48 -30 51 -39 27 -85 64 -131 137
-168 60 -31 158 -36 217 -11 57 25 110 79 138 140 22 47 35 62 71 81 62 33 90
83 90 166 0 58 3 67 34 102 21 22 37 53 40 73 3 20 8 52 11 71 3 19 25 59 51
92 140 180 175 261 182 430 9 212 -56 380 -202 527 -94 94 -161 136 -283 179
-75 26 -106 30 -208 33 -78 3 -141 -1 -180 -10z m290 -171 c193 -49 351 -204
400 -390 19 -75 19 -194 0 -268 -17 -65 -45 -113 -122 -208 -58 -73 -89 -133
-99 -197 l-7 -42 -307 0 -307 0 -6 39 c-8 61 -48 139 -112 216 -83 101 -116
176 -123 280 -12 199 73 379 228 485 63 43 141 77 205 90 67 13 187 11 250 -5z"/>
<path d="M3775 3598 c-46 -25 -45 -2 -45 -775 l0 -734 25 -24 24 -25 636 0
636 0 24 25 25 24 0 646 0 645 -82 87 c-46 47 -101 99 -122 115 l-39 28 -531
0 c-365 -1 -537 -4 -551 -12z m1000 -453 c29 -28 32 -70 8 -105 -33 -48 -453
-508 -469 -514 -8 -3 -28 -6 -43 -6 -32 0 -58 26 -164 166 -59 77 -77 108 -77
133 0 44 38 81 84 81 36 0 38 -2 148 -134 l24 -28 178 198 c99 110 188 207
198 217 30 25 84 22 113 -8z"/>
<path d="M2315 3501 c-228 -47 -367 -147 -455 -325 -54 -108 -78 -228 -90
-451 -17 -311 13 -528 100 -712 l39 -83 101 0 101 0 -20 29 c-72 101 -137 293
-148 436 l-6 80 55 38 c30 20 90 73 133 117 l77 80 80 -75 c170 -164 356 -249
598 -276 84 -9 234 -1 307 17 19 5 23 2 23 -17 0 -74 -71 -282 -124 -368 -12
-20 -26 -42 -30 -48 -6 -10 16 -13 93 -13 l100 0 29 63 c43 91 81 219 98 327
17 113 18 373 3 525 -37 371 -185 564 -494 646 -116 31 -440 37 -570 10z"/>
<path d="M1550 1190 l0 -570 355 0 355 0 0 49 c0 67 13 97 50 116 26 14 67 16
280 13 247 -3 249 -3 274 -27 23 -21 26 -33 26 -88 l0 -63 360 0 360 0 0 570
0 570 -1030 0 -1030 0 0 -570z"/>
<path d="M1337 1164 c-46 -55 -123 -189 -151 -262 -54 -142 -76 -269 -76 -444
l0 -118 575 0 575 0 0 55 0 55 -415 0 -416 0 -24 25 -25 24 0 351 c0 192 -3
350 -7 349 -5 0 -21 -16 -36 -35z"/>
<path d="M3780 861 c0 -349 -2 -370 -39 -398 -12 -9 -121 -12 -434 -13 l-418
0 3 -53 3 -52 573 -3 572 -2 0 144 c0 253 -50 427 -177 618 -89 133 -83 149
-83 -241z"/>
<path d="M2437 623 c-4 -3 -7 -107 -7 -230 l0 -223 -685 0 -685 0 0 -85 0 -85
1518 2 1517 3 3 82 3 83 -688 2 -688 3 -3 228 -2 227 -139 0 c-76 0 -141 -3
-144 -7z"/>
</g>
</svg>
